<svg width="285" height="297" viewBox="0 0 285 297" fill="none" xmlns="http://www.w3.org/2000/svg">
<path d="M266.671 49.936C236.011 32.9529 222.566 41.8845 226.336 76.731C230.106 111.577 216.661 120.509 186.001 103.526C155.34 86.543 141.895 95.4746 145.665 130.321C149.435 165.167 135.991 174.098 105.33 157.116C74.6691 140.133 61.2254 149.064 64.995 183.911C68.7643 218.757 55.3206 227.688 24.6598 210.706" stroke="#030303" stroke-width="7.80937" stroke-linecap="round"/>
<path d="M103.027 37.3536C102.138 31.3345 96.687 27.122 90.6985 27.6963L90.117 27.7669L90.1156 27.7671C83.9042 28.6858 79.6129 34.4657 80.5336 40.6804L84.5326 67.7546L84.532 67.7554C87.1877 85.7217 74.7769 102.437 56.8094 105.093L56.8086 105.092L29.7366 109.096C23.5214 110.011 19.2312 115.789 20.1514 122.002L20.15 122.003C21.0645 128.218 26.8433 132.51 33.0577 131.589L60.1335 127.591L60.1341 127.59C78.1016 124.935 94.8168 137.347 97.4713 155.313L97.4721 155.314L101.474 182.387C102.39 188.603 108.171 192.894 114.383 191.977L114.384 191.977C120.597 191.055 124.887 185.278 123.972 179.064L123.972 179.062L119.97 151.989L119.856 151.148C117.704 133.503 130.007 117.265 147.692 114.652L174.768 110.65C180.98 109.732 185.272 103.951 184.354 97.7385C183.436 91.5259 177.656 87.2339 171.443 88.1521L144.368 92.1526C126.402 94.8075 109.686 82.3967 107.03 64.4299L103.027 37.3536Z" fill="#FFC700" stroke="black" stroke-width="5.85703"/>
<path d="M184.597 162.294C181.493 160.273 177.374 161.062 175.223 164.024L175.02 164.318L175.019 164.319C172.935 167.523 173.842 171.812 177.048 173.896L177.049 173.895L187.896 180.956C194.381 185.176 196.216 193.853 191.996 200.338L184.938 211.186C182.85 214.39 183.756 218.676 186.961 220.761L186.96 220.762C190.165 222.85 194.453 221.943 196.537 218.736L196.537 218.735L203.598 207.889C207.818 201.404 216.496 199.568 222.98 203.789L233.828 210.847C237.033 212.935 241.321 212.028 243.406 208.825L243.407 208.823C245.49 205.619 244.584 201.334 241.381 199.247L241.38 199.246L230.531 192.187L230.231 191.986C223.99 187.695 222.277 179.187 226.431 172.804L233.491 161.955C235.576 158.751 234.669 154.463 231.466 152.378C228.262 150.293 223.975 151.201 221.89 154.404L214.829 165.254C210.609 171.738 201.931 173.574 195.446 169.354L184.597 162.294Z" fill="#FFC700" stroke="black" stroke-width="5.85703"/>
<path d="M46.8584 251.402C43.6268 253.212 42.412 257.226 44.0359 260.507L44.2016 260.822L44.2023 260.823C46.0711 264.158 50.2906 265.347 53.6261 263.476L53.6255 263.475L64.9167 257.15C71.6662 253.368 80.2032 255.773 83.9855 262.524L90.3127 273.813C92.1797 277.151 96.3963 278.339 99.7315 276.47L99.7322 276.471C103.07 274.603 104.259 270.384 102.387 267.049L102.386 267.049L96.0615 255.757C92.2794 249.007 94.6854 240.47 101.435 236.689L112.725 230.361C116.063 228.494 117.252 224.275 115.384 220.94L115.383 220.939C113.513 217.605 109.298 216.418 105.962 218.284L105.96 218.285L94.669 224.613L94.3516 224.785C87.6535 228.318 79.3229 225.883 75.6002 219.239L69.2728 207.946C67.4042 204.611 63.1864 203.423 59.8516 205.291C56.5169 207.159 55.3285 211.377 57.1967 214.712L63.5241 226.005C67.3058 232.754 64.9001 241.291 58.1504 245.074L46.8584 251.402Z" fill="#FFC700" stroke="black" stroke-width="5.85703"/>
</svg>
