<svg width="276" height="370" viewBox="0 0 276 370" fill="none" xmlns="http://www.w3.org/2000/svg">
<mask id="path-1-outside-1_24_30" maskUnits="userSpaceOnUse" x="26" y="73" width="238" height="237" fill="black">
<rect fill="white" x="26" y="73" width="238" height="237"/>
<path d="M138.982 306.6C136.782 293.6 130.982 279.6 121.582 264.6C112.182 249.4 98.7824 235.3 81.3824 222.3C64.1824 209.3 46.9824 201 29.7824 197.4V184.8C46.7824 180.8 63.0824 173.4 78.6824 162.6C94.4824 151.6 107.682 138.4 118.282 123C129.082 107.2 135.982 91.6 138.982 76.2H151.582C153.382 86.2 156.982 96.5 162.382 107.1C167.782 117.5 174.682 127.5 183.082 137.1C191.682 146.5 201.282 155 211.882 162.6C227.682 173.8 243.782 181.2 260.182 184.8V197.4C249.182 199.6 237.782 204.1 225.982 210.9C214.382 217.7 203.582 225.8 193.582 235.2C183.582 244.4 175.382 254.1 168.982 264.3C159.582 279.3 153.782 293.4 151.582 306.6H138.982Z"/>
</mask>
<path d="M138.982 306.6L136.024 307.101L136.447 309.6H138.982V306.6ZM121.582 264.6L119.031 266.178L119.036 266.185L119.04 266.193L121.582 264.6ZM81.3824 222.3L79.5735 224.693L79.5802 224.698L79.5868 224.703L81.3824 222.3ZM29.7824 197.4H26.7824V199.837L29.1678 200.336L29.7824 197.4ZM29.7824 184.8L29.0953 181.88L26.7824 182.424V184.8H29.7824ZM78.6824 162.6L80.3901 165.067L80.3965 165.062L78.6824 162.6ZM118.282 123L120.754 124.701L120.759 124.693L118.282 123ZM138.982 76.2V73.2H136.51L136.038 75.6264L138.982 76.2ZM151.582 76.2L154.535 75.6685L154.091 73.2H151.582V76.2ZM162.382 107.1L159.709 108.462L159.715 108.472L159.72 108.482L162.382 107.1ZM183.082 137.1L180.825 139.076L180.847 139.101L180.869 139.125L183.082 137.1ZM211.882 162.6L210.134 165.038L210.141 165.043L210.148 165.047L211.882 162.6ZM260.182 184.8H263.182V182.387L260.826 181.87L260.182 184.8ZM260.182 197.4L260.771 200.342L263.182 199.859V197.4H260.182ZM225.982 210.9L224.485 208.301L224.475 208.306L224.465 208.312L225.982 210.9ZM193.582 235.2L195.614 237.408L195.625 237.397L195.637 237.386L193.582 235.2ZM168.982 264.3L166.441 262.706L166.44 262.707L168.982 264.3ZM151.582 306.6V309.6H154.124L154.542 307.093L151.582 306.6ZM138.982 306.6L141.94 306.099C139.656 292.603 133.666 278.233 124.125 263.007L121.582 264.6L119.04 266.193C128.299 280.967 133.908 294.597 136.024 307.101L138.982 306.6ZM121.582 264.6L124.134 263.022C114.498 247.441 100.816 233.075 83.178 219.897L81.3824 222.3L79.5868 224.703C96.7484 237.525 109.866 251.359 119.031 266.178L121.582 264.6ZM81.3824 222.3L83.1913 219.907C65.7166 206.699 48.1172 198.173 30.397 194.464L29.7824 197.4L29.1678 200.336C45.8476 203.827 62.6482 211.901 79.5735 224.693L81.3824 222.3ZM29.7824 197.4H32.7824V184.8H29.7824H26.7824V197.4H29.7824ZM29.7824 184.8L30.4695 187.72C47.8656 183.627 64.5081 176.062 80.3901 165.067L78.6824 162.6L76.9748 160.133C61.6568 170.738 45.6993 177.973 29.0953 181.88L29.7824 184.8ZM78.6824 162.6L80.3965 165.062C96.4836 153.862 109.943 140.407 120.754 124.701L118.282 123L115.811 121.299C105.422 136.393 92.4812 149.338 76.9683 160.138L78.6824 162.6ZM118.282 123L120.759 124.693C131.74 108.628 138.834 92.6526 141.927 76.7736L138.982 76.2L136.038 75.6264C133.131 90.5474 126.425 105.772 115.806 121.307L118.282 123ZM138.982 76.2V79.2H151.582V76.2V73.2H138.982V76.2ZM151.582 76.2L148.63 76.7315C150.49 87.0648 154.198 97.6436 159.709 108.462L162.382 107.1L165.056 105.738C159.767 95.3563 156.275 85.3352 154.535 75.6685L151.582 76.2ZM162.382 107.1L159.72 108.482C165.24 119.114 172.28 129.311 180.825 139.076L183.082 137.1L185.34 135.124C177.084 125.689 170.325 115.886 165.045 105.718L162.382 107.1ZM183.082 137.1L180.869 139.125C189.613 148.682 199.369 157.32 210.134 165.038L211.882 162.6L213.63 160.162C203.195 152.68 193.752 144.318 185.296 135.075L183.082 137.1ZM211.882 162.6L210.148 165.047C226.226 176.445 242.691 184.032 259.539 187.73L260.182 184.8L260.826 181.87C244.874 178.368 229.139 171.155 213.617 160.153L211.882 162.6ZM260.182 184.8H257.182V197.4H260.182H263.182V184.8H260.182ZM260.182 197.4L259.594 194.458C248.214 196.734 236.509 201.372 224.485 208.301L225.982 210.9L227.48 213.499C239.056 206.828 250.151 202.466 260.771 200.342L260.182 197.4ZM225.982 210.9L224.465 208.312C212.668 215.228 201.688 223.464 191.528 233.014L193.582 235.2L195.637 237.386C205.477 228.136 216.097 220.172 227.5 213.488L225.982 210.9ZM193.582 235.2L191.551 232.992C181.379 242.35 173 252.252 166.441 262.706L168.982 264.3L171.524 265.894C177.765 255.948 185.785 246.45 195.614 237.408L193.582 235.2ZM168.982 264.3L166.44 262.707C156.894 277.94 150.906 292.412 148.623 306.107L151.582 306.6L154.542 307.093C156.659 294.388 162.27 280.66 171.525 265.893L168.982 264.3ZM151.582 306.6V303.6H138.982V306.6V309.6H151.582V306.6Z" fill="black" mask="url(#path-1-outside-1_24_30)"/>
<path d="M124.982 296.6C122.782 283.6 116.982 269.6 107.582 254.6C98.1824 239.4 84.7824 225.3 67.3824 212.3C50.1824 199.3 32.9824 191 15.7824 187.4V174.8C32.7824 170.8 49.0824 163.4 64.6824 152.6C80.4824 141.6 93.6824 128.4 104.282 113C115.082 97.2 121.982 81.6 124.982 66.2H137.582C139.382 76.2 142.982 86.5 148.382 97.1C153.782 107.5 160.682 117.5 169.082 127.1C177.682 136.5 187.282 145 197.882 152.6C213.682 163.8 229.782 171.2 246.182 174.8V187.4C235.182 189.6 223.782 194.1 211.982 200.9C200.382 207.7 189.582 215.8 179.582 225.2C169.582 234.4 161.382 244.1 154.982 254.3C145.582 269.3 139.782 283.4 137.582 296.6H124.982Z" fill="black"/>
<path d="M199 118.73L162.408 105.386L179.094 69.3823L144.005 86.5031L131 48.957L117.995 86.5031L82.9062 69.3823L99.5918 105.386L63 118.73L99.5918 132.075L82.9062 168.078L117.995 150.958L131 188.504L144.005 150.958L179.094 168.078L162.408 132.075L199 118.73Z" fill="#FFF685"/>
</svg>
