<svg width="137" height="129" viewBox="0 0 137 129" fill="none" xmlns="http://www.w3.org/2000/svg">
<path d="M85.3634 65.8775C89.4238 76.7642 98.1165 85.0331 108.827 88.1056L113.947 89.5742L109.027 91.6146C98.7335 95.8815 91.0341 105.082 88.234 116.358L86.9677 121.457L85.1316 116.535C81.0711 105.648 72.3793 97.3801 61.6687 94.3076L56.5478 92.8381L61.4692 90.7986C71.7626 86.5317 79.4609 77.3307 82.261 66.0539L83.5272 60.9542L85.3634 65.8775Z" fill="#5CF1A4" stroke="black" stroke-width="3"/>
<path d="M101.363 11.8775C105.424 22.7642 114.117 31.0331 124.827 34.1056L129.947 35.5742L125.027 37.6146C114.733 41.8815 107.034 51.0817 104.234 62.3584L102.968 67.4571L101.132 62.5348C97.0711 51.6483 88.3793 43.3801 77.6687 40.3076L72.5478 38.8381L77.4692 36.7986C87.7626 32.5317 95.4609 23.3307 98.261 12.0539L99.5272 6.95423L101.363 11.8775Z" fill="#5CF1A4" stroke="black" stroke-width="3"/>
<path d="M35.3634 33.8775C39.4238 44.7642 48.1165 53.0331 58.8273 56.1056L63.9472 57.5742L59.0268 59.6146C48.7335 63.8815 41.0341 73.0817 38.234 84.3584L36.9677 89.4571L35.1316 84.5348C31.0711 73.6483 22.3793 65.3801 11.6687 62.3076L6.54776 60.8381L11.4692 58.7986C21.7626 54.5317 29.4609 45.3307 32.261 34.0539L33.5272 28.9542L35.3634 33.8775Z" fill="#5CF1A4" stroke="black" stroke-width="3"/>
</svg>
